<?xml version="1.0" encoding="utf-8"?>
<!-- Generator: Adobe Illustrator 13.0.0, SVG Export Plug-In . SVG Version: 6.00 Build 14948)  -->
<!DOCTYPE svg PUBLIC "-//W3C//DTD SVG 1.1//EN" "http://www.w3.org/Graphics/SVG/1.1/DTD/svg11.dtd">
<svg version="1.1" id="Capa_1" xmlns="http://www.w3.org/2000/svg" xmlns:xlink="http://www.w3.org/1999/xlink" x="0px" y="0px"
	 width="800px" height="600px" viewBox="0 0 800 600" enable-background="new 0 0 800 600" xml:space="preserve">
<g>
	<g>
		<g>
			<path fill="#FBFBFB" d="M353.756,127.61c13.269,0,24.586-4.878,33.951-14.634c9.366-9.756,14.049-21.463,14.049-35.122
				c0-13.659-4.683-25.366-14.049-35.122c-9.365-9.755-20.683-14.634-33.951-14.634c-13.268,0-24.585,4.878-33.951,14.634
				c-9.365,9.756-14.049,21.463-14.049,35.122c0,13.659,4.684,25.366,14.049,35.122C329.171,122.731,340.488,127.61,353.756,127.61z
				"/>
			<path fill="#FBFBFB" d="M383.024,170.927c3.122-6.244,3.122-12.292,0-18.146c-3.122-5.854-8.195-8.78-15.22-8.78h-144
				c-7.805,0-13.268,2.927-16.39,8.78c-3.122,5.854-3.122,11.903,0,18.146c3.123,6.244,8.585,9.366,16.39,9.366h144
				C374.829,180.292,379.902,177.17,383.024,170.927z"/>
			<path fill="#FBFBFB" d="M541.073,10.537L531.707,0L395.902,139.317l-2.342,2.342l0.586,0.585c0.39,0.39,0.585,0.975,0.585,1.756
				c2.342,3.122,3.513,7.024,3.513,11.708v5.854c0,3.902-0.781,7.414-2.342,10.537c0,0.781-0.195,1.366-0.585,1.756l-0.586,0.585
				l-0.585,0.585c-0.39,0.39-0.586,0.975-0.586,1.756c-6.243,10.147-15.609,15.22-28.097,15.22h-81.952v180.293V384l-25.756,182.634
				c-1.561,7.024,0,13.854,4.683,20.488s10.732,10.732,18.146,12.293c7.414,1.561,15.415-0.196,24-5.269
				c8.584-5.073,13.659-11.122,15.219-18.146l23.415-204.878h12.878l39.805,206.049c1.561,7.024,6.635,12.878,15.22,17.561
				c8.585,4.684,16.39,6.244,23.414,4.684c7.806-1.561,13.464-5.658,16.976-12.293c3.513-6.635,4.488-13.464,2.928-20.488
				l-38.635-195.512V208.39l111.22,108.877l11.707-9.365c37.464-45.269,56.195-94.829,56.195-148.683
				C594.927,102.244,576.976,52.683,541.073,10.537z M414.634,144c8.585-10.926,19.513-23.219,32.781-36.878
				c13.268-13.659,28.097-28.293,44.487-43.902s27.316-26.146,32.78-31.61C552,64.39,567.219,101.854,570.342,144H414.634z
				 M518.829,291.512c-2.341-2.341-17.757-16.976-46.244-43.902s-47.414-46.634-56.78-59.122v-8.195h154.537
				C566.439,217.756,549.269,254.83,518.829,291.512z"/>
		</g>
	</g>
</g>
</svg>
