<?xml version="1.0" encoding="utf-8"?>
<!-- Generator: Adobe Illustrator 13.0.0, SVG Export Plug-In . SVG Version: 6.00 Build 14948)  -->
<!DOCTYPE svg PUBLIC "-//W3C//DTD SVG 1.1//EN" "http://www.w3.org/Graphics/SVG/1.1/DTD/svg11.dtd">
<svg version="1.1" id="Capa_1" xmlns="http://www.w3.org/2000/svg" xmlns:xlink="http://www.w3.org/1999/xlink" x="0px" y="0px"
	 width="364.975px" height="364.975px" viewBox="0 0 364.975 364.975" enable-background="new 0 0 364.975 364.975"
	 xml:space="preserve">
<g>
	<g>
		<path fill="#FBFBFB" d="M337.89,225.873c-21.19,1.306-49.055,22.477-75.928,34.647c-32.956,14.904-84.235,2.926-84.241,2.926
			c7.926-3.715,40.072-11.37,46.543-14.222c34.41-15.134,31.479-46.698,15.094-46.433c-21.64,0.365-34.366,5.68-77.565,11.572
			c-32.748,4.448-71.479,2.821-90.055,9.913C45.515,234.298,3.293,301.69,3.293,301.69l65.293,63.283c0,0,40.436-39.815,60.1-39.815
			c44.832,0,46.639-0.617,88.252-2.864c17.709-0.946,21.388-1.673,31.525-5.087c53.957-18.24,111.883-66.817,112.949-72.664
			C363.866,231.012,349.065,225.177,337.89,225.873z"/>
		<path fill="#FBFBFB" d="M68.598,180.044c1.799,1.153,4.049,1.333,5.975,0.463c34.951-15.699,70.385-15.699,105.328,0
			c1.639,0.722,3.521,0.722,5.161,0c34.946-15.699,70.385-15.699,105.326,0c0.805,0.361,1.695,0.55,2.559,0.55
			c1.203,0,2.394-0.343,3.423-1.013c1.782-1.15,2.864-3.132,2.864-5.263V18.455c0-4.282-3.629-5.704-3.746-5.754
			C276.745,4.276,257.513,0,238.339,0c-16.865,0-33.785,3.336-50.398,9.876v76.738c0,3.018-2.432,5.464-5.462,5.464
			c-3.006,0-5.463-2.446-5.463-5.464V9.876C160.419,3.336,143.501,0,126.632,0C107.466,0,88.226,4.276,69.47,12.701
			c-0.113,0.05-3.74,1.91-3.74,5.754v156.326C65.729,176.912,66.807,178.893,68.598,180.044z M78.282,145.092
			c15.947-6.306,32.178-9.512,48.35-9.512c18.254,0,36.631,4.085,54.572,12.149c0.803,0.36,1.748,0.36,2.555,0
			c17.943-8.064,36.318-12.149,54.58-12.149c16.164,0,32.396,3.206,48.338,9.512v20.295c-16.148-6.085-32.578-9.16-48.973-9.16
			c-18.52,0-37.088,3.927-55.227,11.702c-18.129-7.776-36.697-11.702-55.227-11.702c-16.391,0-32.816,3.076-48.969,9.161
			L78.282,145.092L78.282,145.092z"/>
	</g>
</g>
</svg>
